<svg width="187" height="190" viewBox="0 0 187 190" fill="none" xmlns="http://www.w3.org/2000/svg">
<path d="M94 21C84.1509 21 74.3982 22.9399 65.2987 26.709C56.1993 30.4781 47.9314 36.0026 40.967 42.967C34.0026 49.9314 28.4781 58.1993 24.709 67.2988C20.9399 76.3982 19 86.1509 19 96L94 96L94 21Z" fill="#3399FF"/>
<rect x="94" y="96" width="75" height="75" fill="#3399FF"/>
<path d="M56.5 96H94V133.5L75.25 114.75L56.5 96Z" fill="#3399FF"/>
<line x1="19.5" y1="92" x2="19.5" y2="100" stroke="black"/>
<line x1="56.5" y1="92" x2="56.5" y2="100" stroke="black"/>
<line x1="169.5" y1="92" x2="169.5" y2="100" stroke="black"/>
<line x1="132" y1="92" x2="132" y2="100" stroke="black"/>
<line x1="89.5" y1="58" x2="98.5" y2="58" stroke="black"/>
<line x1="89.5" y1="133" x2="98.5" y2="133" stroke="black"/>
<line x1="89.5" y1="170.5" x2="98.5" y2="170.5" stroke="black"/>
<line x1="89.5" y1="20.5" x2="98.5" y2="20.5" stroke="black"/>
<path d="M103.93 5.94141L104.914 2.77344H105.688L103.988 7.65234C103.725 8.35547 103.307 8.70703 102.734 8.70703L102.598 8.69531L102.328 8.64453V8.05859L102.523 8.07422C102.768 8.07422 102.958 8.02474 103.094 7.92578C103.232 7.82682 103.345 7.64583 103.434 7.38281L103.594 6.95312L102.086 2.77344H102.875L103.93 5.94141Z" fill="black"/>
<path d="M104.746 58.6992H103.41V61H102.656V55.3125H104.539C105.18 55.3125 105.672 55.4583 106.016 55.75C106.362 56.0417 106.535 56.4661 106.535 57.0234C106.535 57.3776 106.439 57.6862 106.246 57.9492C106.056 58.2122 105.79 58.4089 105.449 58.5391L106.785 60.9531V61H105.98L104.746 58.6992ZM103.41 58.0859H104.562C104.935 58.0859 105.23 57.9896 105.449 57.7969C105.671 57.6042 105.781 57.3464 105.781 57.0234C105.781 56.6719 105.676 56.4023 105.465 56.2148C105.257 56.0273 104.954 55.9323 104.559 55.9297H103.41V58.0859ZM107.621 61.4883H107L109.375 55.3125H109.992L107.621 61.4883ZM114.426 61H110.699V60.4805L112.668 58.293C112.96 57.9622 113.16 57.694 113.27 57.4883C113.382 57.2799 113.438 57.0651 113.438 56.8438C113.438 56.5469 113.348 56.3034 113.168 56.1133C112.988 55.9232 112.749 55.8281 112.449 55.8281C112.09 55.8281 111.81 55.931 111.609 56.1367C111.411 56.3398 111.312 56.6237 111.312 56.9883H110.59C110.59 56.4648 110.758 56.0417 111.094 55.7188C111.432 55.3958 111.884 55.2344 112.449 55.2344C112.978 55.2344 113.396 55.3737 113.703 55.6523C114.01 55.9284 114.164 56.2969 114.164 56.7578C114.164 57.3177 113.807 57.9844 113.094 58.7578L111.57 60.4102H114.426V61Z" fill="black"/>
<path d="M102.746 133.699H101.41V136H100.656V130.312H102.539C103.18 130.312 103.672 130.458 104.016 130.75C104.362 131.042 104.535 131.466 104.535 132.023C104.535 132.378 104.439 132.686 104.246 132.949C104.056 133.212 103.79 133.409 103.449 133.539L104.785 135.953V136H103.98L102.746 133.699ZM101.41 133.086H102.562C102.935 133.086 103.23 132.99 103.449 132.797C103.671 132.604 103.781 132.346 103.781 132.023C103.781 131.672 103.676 131.402 103.465 131.215C103.257 131.027 102.954 130.932 102.559 130.93H101.41V133.086ZM105.621 136.488H105L107.375 130.312H107.992L105.621 136.488ZM112.426 136H108.699V135.48L110.668 133.293C110.96 132.962 111.16 132.694 111.27 132.488C111.382 132.28 111.438 132.065 111.438 131.844C111.438 131.547 111.348 131.303 111.168 131.113C110.988 130.923 110.749 130.828 110.449 130.828C110.09 130.828 109.81 130.931 109.609 131.137C109.411 131.34 109.312 131.624 109.312 131.988H108.59C108.59 131.465 108.758 131.042 109.094 130.719C109.432 130.396 109.884 130.234 110.449 130.234C110.978 130.234 111.396 130.374 111.703 130.652C112.01 130.928 112.164 131.297 112.164 131.758C112.164 132.318 111.807 132.984 111.094 133.758L109.57 135.41H112.426V136Z" fill="black"/>
<path d="M169.746 86.6992H168.41V89H167.656V83.3125H169.539C170.18 83.3125 170.672 83.4583 171.016 83.75C171.362 84.0417 171.535 84.4661 171.535 85.0234C171.535 85.3776 171.439 85.6862 171.246 85.9492C171.056 86.2122 170.79 86.4089 170.449 86.5391L171.785 88.9531V89H170.98L169.746 86.6992ZM168.41 86.0859H169.562C169.935 86.0859 170.23 85.9896 170.449 85.7969C170.671 85.6042 170.781 85.3464 170.781 85.0234C170.781 84.6719 170.676 84.4023 170.465 84.2148C170.257 84.0273 169.954 83.9323 169.559 83.9297H168.41V86.0859Z" fill="black"/>
<path d="M18.7461 86.6992H17.4102V89H16.6562V83.3125H18.5391C19.1797 83.3125 19.6719 83.4583 20.0156 83.75C20.362 84.0417 20.5352 84.4661 20.5352 85.0234C20.5352 85.3776 20.4388 85.6862 20.2461 85.9492C20.056 86.2122 19.7904 86.4089 19.4492 86.5391L20.7852 88.9531V89H19.9805L18.7461 86.6992ZM17.4102 86.0859H18.5625C18.9349 86.0859 19.2305 85.9896 19.4492 85.7969C19.6706 85.6042 19.7812 85.3464 19.7812 85.0234C19.7812 84.6719 19.6758 84.4023 19.4648 84.2148C19.2565 84.0273 18.9544 83.9323 18.5586 83.9297H17.4102V86.0859Z" fill="black"/>
<path d="M129.746 86.6992H128.41V89H127.656V83.3125H129.539C130.18 83.3125 130.672 83.4583 131.016 83.75C131.362 84.0417 131.535 84.4661 131.535 85.0234C131.535 85.3776 131.439 85.6862 131.246 85.9492C131.056 86.2122 130.79 86.4089 130.449 86.5391L131.785 88.9531V89H130.98L129.746 86.6992ZM128.41 86.0859H129.562C129.935 86.0859 130.23 85.9896 130.449 85.7969C130.671 85.6042 130.781 85.3464 130.781 85.0234C130.781 84.6719 130.676 84.4023 130.465 84.2148C130.257 84.0273 129.954 83.9323 129.559 83.9297H128.41V86.0859ZM132.621 89.4883H132L134.375 83.3125H134.992L132.621 89.4883ZM139.426 89H135.699V88.4805L137.668 86.293C137.96 85.9622 138.16 85.694 138.27 85.4883C138.382 85.2799 138.438 85.0651 138.438 84.8438C138.438 84.5469 138.348 84.3034 138.168 84.1133C137.988 83.9232 137.749 83.8281 137.449 83.8281C137.09 83.8281 136.81 83.931 136.609 84.1367C136.411 84.3398 136.312 84.6237 136.312 84.9883H135.59C135.59 84.4648 135.758 84.0417 136.094 83.7188C136.432 83.3958 136.884 83.2344 137.449 83.2344C137.978 83.2344 138.396 83.3737 138.703 83.6523C139.01 83.9284 139.164 84.2969 139.164 84.7578C139.164 85.3177 138.807 85.9844 138.094 86.7578L136.57 88.4102H139.426V89Z" fill="black"/>
<path d="M52.7461 86.6992H51.4102V89H50.6562V83.3125H52.5391C53.1797 83.3125 53.6719 83.4583 54.0156 83.75C54.362 84.0417 54.5352 84.4661 54.5352 85.0234C54.5352 85.3776 54.4388 85.6862 54.2461 85.9492C54.056 86.2122 53.7904 86.4089 53.4492 86.5391L54.7852 88.9531V89H53.9805L52.7461 86.6992ZM51.4102 86.0859H52.5625C52.9349 86.0859 53.2305 85.9896 53.4492 85.7969C53.6706 85.6042 53.7812 85.3464 53.7812 85.0234C53.7812 84.6719 53.6758 84.4023 53.4648 84.2148C53.2565 84.0273 52.9544 83.9323 52.5586 83.9297H51.4102V86.0859ZM55.6211 89.4883H55L57.375 83.3125H57.9922L55.6211 89.4883ZM62.4258 89H58.6992V88.4805L60.668 86.293C60.9596 85.9622 61.1602 85.694 61.2695 85.4883C61.3815 85.2799 61.4375 85.0651 61.4375 84.8438C61.4375 84.5469 61.3477 84.3034 61.168 84.1133C60.9883 83.9232 60.7487 83.8281 60.4492 83.8281C60.0898 83.8281 59.8099 83.931 59.6094 84.1367C59.4115 84.3398 59.3125 84.6237 59.3125 84.9883H58.5898C58.5898 84.4648 58.7578 84.0417 59.0938 83.7188C59.4323 83.3958 59.8841 83.2344 60.4492 83.2344C60.9779 83.2344 61.3958 83.3737 61.7031 83.6523C62.0104 83.9284 62.1641 84.2969 62.1641 84.7578C62.1641 85.3177 61.8073 85.9844 61.0938 86.7578L59.5703 88.4102H62.4258V89Z" fill="black"/>
<path d="M105.089 21.4116H103.586V24H102.738V17.6016H104.856C105.577 17.6016 106.131 17.7656 106.518 18.0938C106.907 18.4219 107.102 18.8994 107.102 19.5264C107.102 19.9248 106.994 20.272 106.777 20.5679C106.563 20.8638 106.264 21.085 105.88 21.2314L107.383 23.9473V24H106.478L105.089 21.4116ZM103.586 20.7217H104.883C105.302 20.7217 105.634 20.6133 105.88 20.3965C106.129 20.1797 106.254 19.8896 106.254 19.5264C106.254 19.1309 106.135 18.8276 105.898 18.6167C105.664 18.4058 105.324 18.2988 104.878 18.2959H103.586V20.7217Z" fill="black"/>
<path d="M103.089 170.412H101.586V173H100.738V166.602H102.856C103.577 166.602 104.131 166.766 104.518 167.094C104.907 167.422 105.102 167.899 105.102 168.526C105.102 168.925 104.994 169.272 104.777 169.568C104.563 169.864 104.264 170.085 103.88 170.231L105.383 172.947V173H104.478L103.089 170.412ZM101.586 169.722H102.883C103.302 169.722 103.634 169.613 103.88 169.396C104.129 169.18 104.254 168.89 104.254 168.526C104.254 168.131 104.135 167.828 103.898 167.617C103.664 167.406 103.324 167.299 102.878 167.296H101.586V169.722Z" fill="black"/>
<path d="M184.965 86.3164L185.902 84.7734H186.746L185.363 86.8633L186.789 89H185.953L184.977 87.418L184 89H183.16L184.586 86.8633L183.203 84.7734H184.039L184.965 86.3164Z" fill="black"/>
<path d="M186.53 96.5303C186.823 96.2374 186.823 95.7626 186.53 95.4697L181.757 90.6967C181.464 90.4038 180.99 90.4038 180.697 90.6967C180.404 90.9896 180.404 91.4645 180.697 91.7574L184.939 96L180.697 100.243C180.404 100.536 180.404 101.01 180.697 101.303C180.99 101.596 181.464 101.596 181.757 101.303L186.53 96.5303ZM9.38306e-09 96.75L186 96.75L186 95.25L-9.38306e-09 95.25L9.38306e-09 96.75Z" fill="black"/>
<path d="M94.5303 3.46967C94.2374 3.17678 93.7626 3.17678 93.4697 3.46967L88.6967 8.24264C88.4038 8.53553 88.4038 9.01041 88.6967 9.3033C88.9896 9.59619 89.4645 9.59619 89.7574 9.3033L94 5.06066L98.2426 9.3033C98.5355 9.59619 99.0104 9.59619 99.3033 9.3033C99.5962 9.01041 99.5962 8.53553 99.3033 8.24264L94.5303 3.46967ZM94.75 190L94.75 4H93.25L93.25 190H94.75Z" fill="black"/>
</svg>
